<?xml version="1.0" standalone="no"?>
<!DOCTYPE svg PUBLIC "-//W3C//DTD SVG 20010904//EN"
 "http://www.w3.org/TR/2001/REC-SVG-20010904/DTD/svg10.dtd">
<svg version="1.0" xmlns="http://www.w3.org/2000/svg"
 width="350.000000pt" height="350.000000pt" viewBox="0 0 350.000000 350.000000"
 preserveAspectRatio="xMidYMid meet">
<metadata>
Created by potrace 1.14, written by Peter Selinger 2001-2017
</metadata>
<g transform="translate(0.000000,350.000000) scale(0.100000,-0.100000)"
fill="#000000" stroke="none">
<path d="M520 1735 l0 -1575 470 0 c263 0 514 5 568 11 409 44 736 191 987
443 124 124 192 218 264 363 123 247 172 474 173 798 1 520 -127 878 -411
1148 -219 208 -503 326 -899 372 -96 11 -250 15 -639 15 l-513 0 0 -1575z
m1411 1070 c174 -62 200 -286 50 -436 -131 -131 -324 -132 -410 -2 -138 207
121 522 360 438z m-620 -478 c30 -14 79 -49 111 -77 33 -29 66 -50 80 -50 39
-1 101 -35 146 -81 90 -89 137 -231 129 -384 -11 -219 -129 -389 -281 -403
-42 -4 -59 -12 -100 -47 -113 -99 -245 -133 -333 -86 -59 31 -106 133 -124
268 -17 125 2 505 30 620 60 242 175 322 342 240z m976 -77 c30 -13 71 -42 96
-69 147 -157 20 -385 -222 -399 -294 -16 -424 301 -182 445 30 18 73 37 95 42
61 15 154 7 213 -19z m-25 -594 c116 -55 183 -173 157 -279 -46 -192 -335
-252 -497 -104 -112 104 -119 231 -18 332 66 65 123 86 226 82 56 -3 89 -11
132 -31z m-427 -446 c181 -88 249 -319 131 -448 -68 -75 -187 -89 -298 -34
-141 69 -216 221 -177 359 15 56 77 123 129 140 56 19 158 11 215 -17z"/>
</g>
</svg>
